PathFileType	4	(X/Y/Z)	/Users/niels/Desktop/University/Third Semester/Perception and Action/Exam/Gymnastics Motion Tracking/Code for Gym Tracking/Analyzed Data/Webcam_Backflip/id7_3_baseline_Sports2D/id7_3_baseline_Sports2D_px_person00.trc
DataRate	CameraRate	NumFrames	NumMarkers	Units	OrigDataRate	OrigDataStartFrame	OrigNumFrames
29.810126582278482	29.810126582278482	11	22	m	29.810126582278482	138	158
Frame#	Time	Hip			RHip			RKnee			RAnkle			RBigToe			RSmallToe			RHeel			LHip			LKnee			LAnkle			LBigToe			LSmallToe			LHeel			Neck			Head			Nose			RShoulder			RElbow			RWrist			LShoulder			LElbow			LWrist		
		X1	Y1	Z1	X2	Y2	Z2	X3	Y3	Z3	X4	Y4	Z4	X5	Y5	Z5	X6	Y6	Z6	X7	Y7	Z7	X8	Y8	Z8	X9	Y9	Z9	X10	Y10	Z10	X11	Y11	Z11	X12	Y12	Z12	X13	Y13	Z13	X14	Y14	Z14	X15	Y15	Z15	X16	Y16	Z16	X17	Y17	Z17	X18	Y18	Z18	X19	Y19	Z19	X20	Y20	Z20	X21	Y21	Z21	X22	Y22	Z22
138	4.629299363057325	0.9713248690531212	-0.5587943799609295	0.0	0.9586279482964349	-0.561646328058296	0.0	0.9564334790531586	-0.671593877109993	0.0	0.9490997370014734	-0.776610268391096	0.0	0.983178934619673	-0.7968099882289663	0.0	0.9685512740784886	-0.7997743749918442	0.0	0.9416844078471857	-0.7916906125479026	0.0	0.9843335594760177	-0.5607928595306986	0.0	0.9698105391745091	-0.6715705791831618	0.0	0.9588025965460818	-0.7711227120619479	0.0	0.9917060195109312	-0.7922190116931023	0.0	0.9926066640638366	-0.7883410220011189	0.0	0.951886646409086	-0.7849589352463877	0.0	0.9749031399916955	-0.4092897356241625	0.0	0.9784621894789252	-0.34233596196107635	0.0	0.9824635073362786	-0.37603462180075803	0.0	0.9520103368889281	-0.43100508969434953	0.0	0.9198088781213823	-0.4933902401282124	0.0	0.9202220979126337	-0.5619707473628421	0.0	0.9916134703406861	-0.43078350158405965	0.0	0.9709525952692911	-0.49269594366145725	0.0	0.9406988242228956	-0.5561448634464837	0.0
139	4.662845010615711	0.9707154637791898	-0.5437609114222445	0.0	0.9581323031644159	-0.5463937615329904	0.0	0.9575324577745815	-0.6570574855057609	0.0	0.9504640691515873	-0.763320323404747	0.0	0.9853506290718774	-0.7846351766966083	0.0	0.9706437332336282	-0.787875867110364	0.0	0.9427121068293801	-0.7791362926856968	0.0	0.9837542094072731	-0.5458967487113806	0.0	0.9698320253275045	-0.6570786477604607	0.0	0.9591199249241991	-0.7578855550645618	0.0	0.991550719855703	-0.780689826028869	0.0	0.9925893447529248	-0.7768597029327212	0.0	0.9515040527339265	-0.771932959495541	0.0	0.9752565700359872	-0.3945152474994972	0.0	0.9786009589996925	-0.3268904132513559	0.0	0.9826317950059602	-0.36099633572328704	0.0	0.9526682459540627	-0.41528215491670883	0.0	0.9173144752404745	-0.47558624534872834	0.0	0.919331294951209	-0.5439429187323969	0.0	0.9922143737302557	-0.41590804713133356	0.0	0.9702584399168334	-0.47652596359198673	0.0	0.9381637977625341	-0.5388917164625028	0.0
140	4.6963906581740975	0.9699822112043499	-0.5307283466896068	0.0	0.9575495532951155	-0.5330478218055829	0.0	0.9586293232482404	-0.6443815088874711	0.0	0.9518604213465209	-0.7519482538052774	0.0	0.9871654868139083	-0.7744962788015964	0.0	0.9724656671959159	-0.777929236526786	0.0	0.9437098561211886	-0.7683877449091451	0.0	0.982964246640334	-0.5328922640883126	0.0	0.9702177418904283	-0.644434423978929	0.0	0.9596761827719226	-0.7466674182296406	0.0	0.9911957423685455	-0.7712687604353732	0.0	0.9924274724743324	-0.7673030894809512	0.0	0.9513953179599527	-0.7609095209839246	0.0	0.9755976361812487	-0.38184702612402216	0.0	0.9787696914038982	-0.3135274404674807	0.0	0.982956816076361	-0.3480777211071735	0.0	0.9533507454560024	-0.4017835232787317	0.0	0.9149576166147071	-0.46013012166432965	0.0	0.9184987692046642	-0.5280745705411468	0.0	0.9926968810604301	-0.4031601718656485	0.0	0.9693650681773379	-0.4626241488226708	0.0	0.9364515931109946	-0.5236542358123404	0.0
141	4.729936305732484	0.9692378222370231	-0.5205383690108928	0.0	0.9569586130967234	-0.522516526425449	0.0	0.9595666763933305	-0.6344886652000535	0.0	0.9530427623701073	-0.7432576360763843	0.0	0.9884913729280626	-0.766960335931381	0.0	0.9738681454926813	-0.7705122108705191	0.0	0.9444980557420751	-0.7601939038094369	0.0	0.9821126784351903	-0.5226239188959707	0.0	0.9709106116706764	-0.6345822606174281	0.0	0.9604372032611992	-0.7382233654535353	0.0	0.9908402210764471	-0.7644854179347936	0.0	0.9922615133586692	-0.7603067388812318	0.0	0.9515695944299948	-0.7527200756075764	0.0	0.9758933095855031	-0.3720464462025361	0.0	0.9790255913672393	-0.30311658452947843	0.0	0.983488956790857	-0.33808100007815817	0.0	0.9540084712315073	-0.39131569958795526	0.0	0.9128033195833289	-0.4479989369270863	0.0	0.9177937858889096	-0.5153899774419272	0.0	0.9929779428232508	-0.3933137590870892	0.0	0.9681359112070552	-0.4517669152171146	0.0	0.9351295622616614	-0.5113298325849405	0.0
142	4.763481953290871	0.9685805679232158	-0.513798884554083	0.0	0.9564637353534634	-0.5155176754335651	0.0	0.9602366050354652	-0.6280044042366526	0.0	0.9538121395711544	-0.737694962443417	0.0	0.9892986937320829	-0.7622470062580075	0.0	0.9747049778892801	-0.765890088549557	0.0	0.9449623236588918	-0.7549692276450083	0.0	0.9813682272668248	-0.5157638463857399	0.0	0.9717869796156601	-0.6281591227305188	0.0	0.9613013213538546	-0.7329303608862789	0.0	0.990664814628052	-0.7604877487741016	0.0	0.9922470321952979	-0.756112990382302	0.0	0.9520031491399213	-0.7477208850263923	0.0	0.9760939283503154	-0.3656458759932649	0.0	0.9793886535275854	-0.2962573890825802	0.0	0.9841934937401884	-0.3315724484683345	0.0	0.9545758037215528	-0.3844131382177246	0.0	0.9109576875120504	-0.43982689684199655	0.0	0.9173270030370783	-0.506565156709926	0.0	0.9929601132371103	-0.38689003335487004	0.0	0.9665405774128002	-0.4444075609882614	0.0	0.9340377075761929	-0.5026365154956101	0.0
143	4.7970276008492565	0.9680834353187766	-0.5109363072176474	0.0	0.9561645234493149	-0.5125659713406573	0.0	0.9606022549642199	-0.6252809046583581	0.0	0.9540653767584958	-0.7354898129624053	0.0	0.9896422323736856	-0.7604447977613549	0.0	0.9749354104047012	-0.7641756902970989	0.0	0.945058326641008	-0.752937306024102	0.0	0.9808293831613119	-0.5127899044864408	0.0	0.9726802952418397	-0.6255103946751228	0.0	0.9621020336113679	-0.7309469263036318	0.0	0.9907759556873444	-0.7592637929658641	0.0	0.9924852518531294	-0.7547523594169283	0.0	0.952615897446128	-0.7459860502630754	0.0	0.976123274259655	-0.36299050557699786	0.0	0.9798181096879203	-0.2933272066395726	0.0	0.9849362898173475	-0.32891664047377656	0.0	0.9549842373908535	-0.38139380308455495	0.0	0.9095338901064787	-0.43594939745453753	0.0	0.9171640419653494	-0.502044067452705	0.0	0.9925730226901195	-0.38422258300308415	0.0	0.9646566653221318	-0.44078094859216865	0.0	0.933247258066388	-0.49807500385453124	0.0
144	4.830573248407643	0.9677848995019138	-0.5121971608405732	0.0	0.9561096638985733	-0.5139130147085587	0.0	0.9606605734675696	-0.6264672319833318	0.0	0.9537930531096281	-0.7367615389607487	0.0	0.9896059611192738	-0.7616262119469794	0.0	0.9746651822183784	-0.7653945854769217	0.0	0.9447872042876916	-0.7542371741068495	0.0	0.980484477211789	-0.5139548828814792	0.0	0.9734418814704698	-0.6267498573131726	0.0	0.9626656252062464	-0.7323428951300411	0.0	0.99118647929366	-0.7607722826688936	0.0	0.9929765164651877	-0.7561860236856213	0.0	0.953275731093307	-0.7475005999355429	0.0	0.9759189992649573	-0.3642307433594637	0.0	0.9802225937908539	-0.2944838988230223	0.0	0.9855613831123792	-0.33028628079465155	0.0	0.9551934907993034	-0.3824019702522216	0.0	0.9086200100960109	-0.4364952911664059	0.0	0.9173080914422017	-0.5021023327251144	0.0	0.9918098841854678	-0.38546545973724355	0.0	0.962640734096823	-0.44101401401952606	0.0	0.9328938256650536	-0.4978955581163786	0.0
145	4.86411889596603	0.9676831130245949	-0.5176097169079934	0.0	0.9562714760134385	-0.5195242734987027	0.0	0.9603879646303187	-0.6315447970846394	0.0	0.9530450612069631	-0.741522012732307	0.0	0.9892296435028115	-0.7657846100231348	0.0	0.9740566630112867	-0.7694611895537998	0.0	0.9441707907034864	-0.7588777700039013	0.0	0.9802519002750438	-0.5193009147970911	0.0	0.9739915112860106	-0.6318018836377343	0.0	0.962879721248867	-0.7371006478361595	0.0	0.9918234329328665	-0.7649214535981793	0.0	0.9936068715918943	-0.7603082813189391	0.0	0.9538457897467052	-0.7521930747196878	0.0	0.9754940467272291	-0.36931486201832264	0.0	0.9804873437176564	-0.2996690337385772	0.0	0.985969398087345	-0.3356511854925676	0.0	0.955216458070766	-0.38741621649919566	0.0	0.9082785929903017	-0.44145011978235943	0.0	0.917736222328104	-0.5067967301671564	0.0	0.9907410222280075	-0.390588764039342	0.0	0.9606882812497375	-0.4451954401043265	0.0	0.9330117561071961	-0.5021408792887744	0.0
146	4.897664543524416	0.9677377631255049	-0.5269384605229281	0.0	0.9565766936041921	-0.5291073846383201	0.0	0.9597498823924029	-0.6402754534864613	0.0	0.9519261650273833	-0.749566509006959	0.0	0.9884731404664804	-0.7727375279339737	0.0	0.9732091194050546	-0.7761657470063354	0.0	0.9432679934045701	-0.7666205493831336	0.0	0.9800448547708354	-0.5286628209800237	0.0	0.9743060137728593	-0.6403956326413563	0.0	0.9627218367424228	-0.7450380586139741	0.0	0.9925408893763634	-0.7715231894203687	0.0	0.9941666215139199	-0.766916059368866	0.0	0.9542336988636625	-0.7598559320292614	0.0	0.9749356469301376	-0.3779845710383417	0.0	0.9805107081473411	-0.30863305376574407	0.0	0.9861294099101731	-0.34473926318536513	0.0	0.9551167764147469	-0.3962289353138714	0.0	0.9085458627545588	-0.4506380923899805	0.0	0.918419364086898	-0.5158958685895711	0.0	0.989468873261984	-0.39936744769283666	0.0	0.958986102718164	-0.4533357840891907	0.0	0.9334992336648723	-0.5106546455970314	0.0
147	4.931210191082802	0.9678638886415108	-0.5396181726926197	0.0	0.9569444048856941	-0.5420826788873571	0.0	0.9587437932136932	-0.6520899188781275	0.0	0.9505956251826835	-0.7603783793915535	0.0	0.9872349443391465	-0.782111029488606	0.0	0.9720936182190982	-0.7851763921856473	0.0	0.9422083285105709	-0.7769195062161471	0.0	0.9798048410195994	-0.5415570923576658	0.0	0.9743784251056904	-0.6519944833745456	0.0	0.9622645543752454	-0.7557301750085264	0.0	0.9931189855525108	-0.780280126332612	0.0	0.994405694947496	-0.775703597581329	0.0	0.9544102178748571	-0.7700759338207234	0.0	0.9743417957942138	-0.38973469014785983	0.0	0.9802352147060044	-0.3209163463376089	0.0	0.9860597183335138	-0.3569924899187475	0.0	0.9549757431799551	-0.4083909558773068	0.0	0.9094134394560586	-0.46362258762012337	0.0	0.9193052205738802	-0.5288264780988621	0.0	0.9880543047197402	-0.4113240807504533	0.0	0.9576625969719019	-0.46520266531378335	0.0	0.9341239616867156	-0.5229847638826987	0.0
148	4.964755838641189	0.9679481489656526	-0.5546965689177242	0.0	0.9572811252738798	-0.5574812736499773	0.0	0.9574180699839475	-0.666037183553569	0.0	0.949210900559187	-0.7731149884624657	0.0	0.9853844482328852	-0.7933084026652852	0.0	0.9705369658272863	-0.7959622999833053	0.0	0.9411387640094849	-0.7889196267016517	0.0	0.9795212386624333	-0.5570104774472671	0.0	0.9742114019527571	-0.665733083455505	0.0	0.9616683371992469	-0.7684250998945928	0.0	0.9932780764024564	-0.7907265292580025	0.0	0.994110761499001	-0.7862056332938415	0.0	0.9544033073575444	-0.7821720465871596	0.0	0.9737750073341832	-0.40376902650516305	0.0	0.9796596464136117	-0.335739367688168	0.0	0.9858226654863438	-0.3715232327327003	0.0	0.9548451220567432	-0.423126723737758	0.0	0.9108177848946832	-0.47957265533465343	0.0	0.9202997418155568	-0.5445967231083633	0.0	0.98652397532771	-0.4256507707965331	0.0	0.9568155025227035	-0.4801183506319409	0.0	0.9345628666569555	-0.538268256278585	0.0
